<svg width="302" height="195" viewBox="0 0 302 195" fill="none" xmlns="http://www.w3.org/2000/svg">
<g clip-path="url(#clip0_59_556)">
<rect width="302" height="195" rx="10" fill="url(#paint0_linear_59_556)"/>
<path d="M-25 91.4399L41.4444 30.3199L107.889 139.92L174.333 142.96L240.778 77.3599L307.222 92.2399L373.667 51.9199L440.111 53.1999L506.556 33.5199L573 172.08" stroke="#8B95B9" stroke-opacity="0.6"/>
<path d="M-25 143.28L41.4444 67.2801L107.889 40.5601L174.333 118.16L240.778 181.04L307.222 46.6401L373.667 65.0401L440.111 76.7201L506.556 52.8801L573 59.4401" stroke="#7DCA11" stroke-opacity="0.6"/>
<path d="M-25 134.96L41.4444 181.04L107.889 100.4L174.333 115.92L240.778 54.32L307.222 43.12L373.667 183.44L440.111 163.92L506.556 98.8L573 71.28" stroke="#8F0976" stroke-opacity="0.4"/>
<path d="M-25 130.32L41.4444 114.8L107.889 114.48L174.333 30.16L240.778 87.28L307.222 94L373.667 150.64L440.111 133.2L506.556 131.76L573 73.84" stroke="#8DA073" stroke-opacity="0.6"/>
<path d="M-25 153.2L41.4444 101.52L107.889 39.6L174.333 90.16L240.778 169.04L307.222 79.12L373.667 114.16L440.111 111.12L506.556 187.92L573 49.84" stroke="#36A8D0" stroke-opacity="0.6"/>
<g clip-path="url(#clip1_59_556)">
<path d="M49.0566 26.6131C48.8322 27.0224 48.6945 27.4808 48.6537 27.9551C48.5766 28.5377 48.4482 29.111 48.2701 29.6671C48.003 30.4547 47.5403 31.1469 46.933 31.6671C46.2145 29.6121 45.1703 27.7091 43.8477 26.0441C44.5831 25.7443 45.3794 25.6648 46.1529 25.8141C46.7009 25.9236 47.2376 26.0911 47.7555 26.3141C48.1646 26.5122 48.6077 26.6145 49.0557 26.6141L49.0566 26.6131Z" fill="black"/>
<path d="M41.0117 18.119C41.009 18.5958 41.1035 19.0674 41.2884 19.5C41.4992 20.0433 41.6581 20.6086 41.7623 21.187C41.9027 22.0074 41.8273 22.854 41.5447 23.63C39.9514 22.2254 38.1498 21.1241 36.2168 20.373C36.7174 19.7215 37.3731 19.2314 38.1126 18.956C38.6408 18.7627 39.1853 18.6271 39.7383 18.551C40.1826 18.5032 40.6129 18.3565 41.0025 18.12L41.0117 18.119Z" fill="black"/>
<path d="M47.7871 34.974C48.5556 35.097 49.2794 35.4425 49.8821 35.974C50.3134 36.3676 50.7056 36.809 51.0523 37.291C51.3026 37.6758 51.6258 37.9983 52.0002 38.237H48.0352C48.0406 37.1436 47.9576 36.0517 47.7871 34.974Z" fill="black"/>
<path d="M18.9933 18.119C19.3844 18.3564 19.8168 18.5029 20.263 18.549C20.8161 18.6249 21.3607 18.761 21.8887 18.955C22.6285 19.2298 23.2844 19.72 23.7845 20.372C21.8501 21.1208 20.0472 22.2208 18.4529 23.625C18.1673 22.8498 18.0915 22.0023 18.2344 21.182C18.3386 20.6033 18.4975 20.0376 18.7083 19.494C18.897 19.0641 18.9959 18.5942 18.9979 18.118L18.9933 18.119Z" fill="black"/>
<path d="M10.9434 26.613C11.3914 26.6138 11.8346 26.5116 12.2435 26.313C12.7612 26.0903 13.2976 25.9229 13.8452 25.813C14.6187 25.6637 15.415 25.7432 16.1505 26.043C14.8302 27.7083 13.7882 29.6109 13.0716 31.665C12.4646 31.1447 12.0021 30.4525 11.7354 29.665C11.5556 29.1081 11.4256 28.5338 11.3472 27.95C11.3055 27.4759 11.1679 27.0177 10.9443 26.608L10.9434 26.613Z" fill="black"/>
<path d="M8 38.237C8.38528 38.0008 8.71974 37.6784 8.98112 37.291C9.32198 36.8222 9.70636 36.3926 10.1282 36.009C10.7306 35.4776 11.4541 35.1321 12.2223 35.009C12.0501 36.0816 11.964 37.1683 11.965 38.257L8 38.237Z" fill="black"/>
<path d="M29.9988 15C30.2251 15.4125 30.5304 15.7675 30.8942 16.041C31.345 16.3946 31.7598 16.7992 32.1316 17.248C32.6377 17.8887 32.9666 18.6714 33.0805 19.506C31.0409 19.139 28.9595 19.139 26.9199 19.506C27.0439 18.678 27.3796 17.9043 27.8891 17.273C28.2534 16.8257 28.6602 16.4211 29.1025 16.066C29.469 15.7853 29.7748 15.4216 29.9988 15Z" fill="black"/>
<path d="M26.3333 38.27H27.6934C27.8733 37.059 27.5229 36.123 26.3619 36.343C25.3808 36.533 24.3333 37.56 23.6934 38.27H25.4841C25.6833 38.135 26.077 37.975 26.2374 38.095C26.2653 38.1136 26.2886 38.1392 26.3053 38.1697C26.322 38.2002 26.3316 38.2346 26.3333 38.27Z" fill="black"/>
<path d="M32.4789 38.265H34.1756C34.2968 36.1223 33.8924 33.9831 33.0036 32.065C32.6119 31.2196 32.0375 30.4896 31.3295 29.9369C30.6214 29.3842 29.8006 29.0254 28.9371 28.891C26.287 28.48 23.6194 29.662 21.3537 31.359C18.8982 33.203 16.8659 35.71 15.1074 38.259H17.3491C19.3675 35.259 24.0131 30.649 27.4295 30.619C28.5164 30.5541 29.5879 30.9206 30.4438 31.65C31.0358 32.211 31.7569 33.292 31.7191 34.15C31.7191 34.675 31.2452 34.836 30.8376 34.65C30.5141 34.4797 30.2427 34.212 30.0556 33.879C29.6958 33.3508 29.2099 32.9393 28.6503 32.6887C28.0906 32.4381 27.4785 32.358 26.8799 32.457C25.364 32.678 23.482 33.919 22.2694 35.051C21.2305 36.0298 20.2582 37.0889 19.3602 38.22H21.7447C22.5994 37.088 23.6192 36.1155 24.7637 35.341C25.1852 35.0598 25.6331 34.8282 26.0998 34.65C27.3419 34.2 28.5738 34.315 29.1234 35.95C29.3385 36.6699 29.4015 37.4331 29.3078 38.183V38.225H30.9473V38.175C30.9473 37.609 30.9473 37.228 30.9814 36.675C31.0248 36.175 31.1658 35.675 31.5928 35.633C32.4937 35.433 32.4457 37.551 32.4651 38.233L32.4789 38.265Z" fill="black"/>
<path d="M35.962 38.265H37.6734C37.7846 36.1307 37.5553 33.9917 36.9956 31.942C36.8775 31.5458 36.7402 31.1566 36.5844 30.776C36.2206 29.9025 35.7416 29.091 35.1625 28.367C34.5033 27.5349 33.7301 26.8176 32.8702 26.24C32.6092 26.069 32.3436 25.914 32.0688 25.77C31.7921 25.6292 31.509 25.5037 31.2205 25.394C27.9009 24.143 24.5141 25.033 21.685 26.656C21.1318 26.976 20.6025 27.3183 20.0972 27.683C19.59 28.048 19.1115 28.424 18.6753 28.809C18.0071 29.3758 17.3738 29.9895 16.7795 30.646C16.6467 30.791 16.5185 30.946 16.3959 31.092C16.0593 31.492 15.5383 32.058 15.6941 32.644C15.8122 33.105 16.3811 32.969 16.5757 32.809C16.8968 32.6089 17.1986 32.3744 17.4766 32.109C17.8602 31.763 18.2253 31.393 18.6089 31.042C20.033 29.7163 21.6302 28.6265 23.3485 27.808C23.6943 27.648 24.0401 27.508 24.3813 27.372C24.7225 27.236 25.0682 27.137 25.4048 27.042C28.3555 26.236 31.5663 26.762 33.5995 29.295C35.5765 31.738 35.9361 35.012 35.9693 38.262L35.962 38.265ZM14.7204 35.5C14.9264 35.29 15.1164 35.0623 15.2884 34.819C15.4069 34.6908 15.488 34.5277 15.5218 34.3499C15.5555 34.1721 15.5405 33.9875 15.4784 33.819C15.4392 33.7253 15.3805 33.6428 15.3069 33.578C15.234 33.5166 15.1501 33.4724 15.0607 33.448C14.9257 33.423 14.787 33.4398 14.6605 33.4964C14.5339 33.553 14.4246 33.6471 14.3451 33.768C14.0209 34.174 13.7947 34.6609 13.6867 35.185C13.6747 35.2732 13.6747 35.3628 13.6867 35.451C13.694 35.5334 13.7166 35.6133 13.7531 35.686C13.7798 35.7422 13.8207 35.7891 13.8709 35.8211C13.9212 35.8532 13.9788 35.8691 14.0371 35.867H14.2215C14.4128 35.7913 14.5838 35.6656 14.7195 35.501L14.7204 35.5Z" fill="black"/>
<path d="M40.2284 38.265C40.3624 38.268 40.4948 38.2327 40.6122 38.1624C40.7296 38.0922 40.8278 37.9896 40.8969 37.865C40.9348 37.7955 40.9657 37.7217 40.9891 37.645C41.0139 37.5517 41.03 37.4558 41.0371 37.359C41.1736 32.353 39.7148 28.182 37.2454 25.344C36.7669 24.7976 36.2468 24.2958 35.6907 23.844C35.1359 23.4003 34.5466 23.0095 33.9295 22.676C31.4109 21.3821 28.581 20.9794 25.8399 21.525C25.3945 21.615 24.9528 21.725 24.5167 21.86C22.1111 22.6464 19.9218 24.0647 18.1431 25.989C17.7918 26.37 17.4552 26.76 17.138 27.171C16.9813 27.376 16.83 27.581 16.6641 27.792C17.9108 26.6485 19.267 25.6532 20.7093 24.823C21.0311 24.643 21.3483 24.473 21.6563 24.323C21.9643 24.173 22.3018 24.017 22.6328 23.882C23.8307 23.3796 25.0824 23.0436 26.3581 22.882C27.6016 22.7357 28.8574 22.7693 30.0927 22.982C30.9656 23.1265 31.8208 23.3767 32.6423 23.728C32.799 23.793 32.9456 23.868 33.1162 23.945C33.2646 24.0131 33.4088 24.0916 33.5478 24.18C36.3141 25.78 38.2394 29.072 39.0878 32.78C39.4311 34.2426 39.6 35.7468 39.5903 37.256V37.296C39.5825 37.465 39.6119 37.6335 39.6761 37.7878C39.7402 37.942 39.8372 38.0775 39.9592 38.183C40.0018 38.2111 40.0477 38.233 40.0956 38.248C40.1476 38.256 40.2004 38.256 40.2524 38.248L40.2284 38.265Z" fill="black"/>
<path d="M35.2166 21.5291C42.0549 23.9191 46.6829 30.6571 46.7134 38.2651H43.4196C43.6372 31.4511 40.822 25.2981 35.2129 21.5291H35.2166Z" fill="black"/>
<path d="M15.9607 43.711H14.6319L14.3055 44.937H13.2441L14.6633 40.237H16.0058L17.425 44.937H16.3184L15.9607 43.711ZM14.7785 42.919H15.7993C15.5346 41.998 15.3594 41.372 15.2792 41.027L15.0717 41.927L14.7951 42.927L14.7785 42.919ZM20.8404 43.711H19.5117L19.1853 44.937H18.1211L19.5403 40.237H20.8828L22.302 44.937H21.2047L20.8404 43.711ZM19.6629 42.919H20.6846C20.4144 41.998 20.2447 41.372 20.1645 41.027L19.9561 41.927L19.6795 42.927L19.6629 42.919ZM23.3237 44.919V40.306C23.7936 40.2327 24.268 40.1973 24.7428 40.2C25.4687 40.1274 26.1935 40.3505 26.776 40.826C26.9829 41.038 27.1457 41.2955 27.2534 41.5813C27.361 41.867 27.4111 42.1745 27.4003 42.483C27.4182 42.8292 27.3643 43.1753 27.2423 43.4959C27.1204 43.8164 26.9336 44.1032 26.6958 44.335C26.0642 44.8281 25.2904 45.0591 24.515 44.986C24.117 44.9886 23.7191 44.9653 23.3237 44.916V44.919ZM24.3453 41.074V44.133C24.468 44.145 24.5915 44.145 24.7142 44.133C25.1415 44.1632 25.5628 44.0118 25.8889 43.711C26.0323 43.5519 26.1432 43.3618 26.2144 43.1532C26.2855 42.9445 26.3154 42.722 26.302 42.5C26.3157 42.297 26.289 42.0933 26.2237 41.9025C26.1585 41.7117 26.0563 41.5383 25.924 41.394C25.6173 41.1217 25.2268 40.9856 24.8313 41.013C24.6729 41.0099 24.5146 41.025 24.3592 41.058L24.3453 41.074ZM28.4782 40.243H29.4925V42.05H31.2371V40.241H32.2588V44.941H31.2371V42.986H29.4953V44.937H28.481L28.4782 40.243ZM35.9592 43.713H34.6305L34.2994 44.939H33.239L34.6572 40.239H36.0007L37.4429 44.939H36.3364L35.9721 43.713H35.9592ZM34.7817 42.922H35.8034C35.5332 42 35.358 41.375 35.2833 41.029L35.0703 41.929L34.7937 42.929L34.7817 42.922ZM40.8436 43.713H39.5158L39.1848 44.939H38.1234L39.5425 40.239H40.8851L42.3273 44.939H41.2208L40.8621 43.713H40.8436ZM39.667 42.922H40.6813C40.4167 42 40.2415 41.375 40.1613 41.029L39.9483 41.929L39.6716 42.929L39.667 42.922ZM43.3222 44.922V40.306C43.7779 40.2285 44.2387 40.1931 44.6999 40.2C45.2055 40.1553 45.7118 40.2777 46.1522 40.551C46.2955 40.6656 46.4106 40.8169 46.4872 40.9913C46.5638 41.1658 46.5994 41.358 46.5911 41.551C46.5924 41.8067 46.5141 42.0555 46.3689 42.257C46.2238 42.4663 46.0224 42.6218 45.7925 42.702C45.9498 42.7833 46.0865 42.9048 46.1911 43.0559C46.2956 43.2071 46.3648 43.3835 46.3928 43.57C46.6209 44.4106 46.7438 44.8563 46.7617 44.907H45.7197C45.5789 44.5564 45.4726 44.1907 45.4025 43.816C45.3716 43.5991 45.285 43.396 45.1526 43.23C45.0108 43.1037 44.8291 43.0427 44.6464 43.06H44.331V44.937L43.3222 44.922ZM44.331 41.017V42.309H44.7524C44.971 42.3291 45.1894 42.2673 45.3711 42.134C45.4428 42.0767 45.5002 42.0011 45.5382 41.9138C45.5762 41.8265 45.5936 41.7303 45.5888 41.634C45.5966 41.5393 45.5826 41.4441 45.548 41.3568C45.5134 41.2695 45.4592 41.1929 45.3905 41.134C45.2254 41.0116 45.0277 40.9519 44.828 40.964C44.6697 40.9599 44.5113 40.972 44.355 41L44.331 41.017Z" fill="black"/>
</g>
<path d="M66.9517 18.4545H69.1534V28.0213C69.1534 29.0393 68.9143 29.9413 68.4361 30.7273C67.9579 31.5085 67.2855 32.1241 66.419 32.5739C65.5526 33.0189 64.5369 33.2415 63.3722 33.2415C62.2121 33.2415 61.1989 33.0189 60.3324 32.5739C59.4659 32.1241 58.7936 31.5085 58.3153 30.7273C57.8371 29.9413 57.598 29.0393 57.598 28.0213V18.4545H59.7926V27.8438C59.7926 28.5019 59.937 29.0866 60.2259 29.598C60.5194 30.1094 60.9337 30.5118 61.4688 30.8054C62.0038 31.0942 62.6383 31.2386 63.3722 31.2386C64.1108 31.2386 64.7476 31.0942 65.2827 30.8054C65.8224 30.5118 66.2344 30.1094 66.5185 29.598C66.8073 29.0866 66.9517 28.5019 66.9517 27.8438V18.4545ZM74.5387 18.4545V33H72.3441V18.4545H74.5387ZM82.4435 33H77.7347V18.4545H82.5927C84.0179 18.4545 85.2418 18.7457 86.2646 19.3281C87.2873 19.9058 88.0709 20.7367 88.6154 21.821C89.1647 22.9006 89.4393 24.1955 89.4393 25.706C89.4393 27.2211 89.1623 28.5232 88.6083 29.6122C88.0591 30.7012 87.2636 31.5393 86.2219 32.1264C85.1803 32.7088 83.9208 33 82.4435 33ZM79.9293 31.0824H82.3228C83.4308 31.0824 84.3517 30.8741 85.0856 30.4574C85.8195 30.036 86.3687 29.4276 86.7333 28.6321C87.0979 27.8319 87.2802 26.8565 87.2802 25.706C87.2802 24.5649 87.0979 23.5966 86.7333 22.8011C86.3735 22.0057 85.8361 21.402 85.1211 20.9901C84.4061 20.5781 83.5183 20.3722 82.4577 20.3722H79.9293V31.0824ZM92.6744 33H90.3448L95.5792 18.4545H98.1147L103.349 33H101.02L96.9073 21.0966H96.7937L92.6744 33ZM93.065 27.304H100.622V29.1506H93.065V27.304ZM107.644 18.4545V33H105.45V18.4545H107.644Z" fill="black"/>
<path d="M62.0234 37H63.2344V42.2617C63.2344 42.8216 63.1029 43.3177 62.8398 43.75C62.5768 44.1797 62.207 44.5182 61.7305 44.7656C61.2539 45.0104 60.6953 45.1328 60.0547 45.1328C59.4167 45.1328 58.8594 45.0104 58.3828 44.7656C57.9063 44.5182 57.5365 44.1797 57.2734 43.75C57.0104 43.3177 56.8789 42.8216 56.8789 42.2617V37H58.0859V42.1641C58.0859 42.526 58.1654 42.8477 58.3242 43.1289C58.4857 43.4102 58.7135 43.6315 59.0078 43.793C59.3021 43.9518 59.651 44.0312 60.0547 44.0312C60.4609 44.0312 60.8112 43.9518 61.1055 43.793C61.4023 43.6315 61.6289 43.4102 61.7852 43.1289C61.944 42.8477 62.0234 42.526 62.0234 42.1641V37ZM66.0635 41.4375V45H64.8955V39H66.0166V39.9766H66.0908C66.2288 39.6589 66.445 39.4036 66.7393 39.2109C67.0361 39.0182 67.4098 38.9219 67.8604 38.9219C68.2692 38.9219 68.6273 39.0078 68.9346 39.1797C69.2419 39.349 69.4801 39.6016 69.6494 39.9375C69.8187 40.2734 69.9033 40.6888 69.9033 41.1836V45H68.7354V41.3242C68.7354 40.8893 68.6221 40.5495 68.3955 40.3047C68.1689 40.0573 67.8577 39.9336 67.4619 39.9336C67.1911 39.9336 66.9502 39.9922 66.7393 40.1094C66.5309 40.2266 66.3656 40.3984 66.2432 40.625C66.1234 40.849 66.0635 41.1198 66.0635 41.4375ZM71.4697 45V39H72.6377V45H71.4697ZM72.0596 38.0742C71.8564 38.0742 71.682 38.0065 71.5361 37.8711C71.3929 37.7331 71.3213 37.569 71.3213 37.3789C71.3213 37.1862 71.3929 37.0221 71.5361 36.8867C71.682 36.7487 71.8564 36.6797 72.0596 36.6797C72.2627 36.6797 72.4359 36.7487 72.5791 36.8867C72.7249 37.0221 72.7979 37.1862 72.7979 37.3789C72.7979 37.569 72.7249 37.7331 72.5791 37.8711C72.4359 38.0065 72.2627 38.0742 72.0596 38.0742ZM78.2598 47.25V44.0664H78.1895C78.1191 44.194 78.0176 44.3398 77.8848 44.5039C77.7546 44.668 77.5749 44.8112 77.3457 44.9336C77.1165 45.056 76.8197 45.1172 76.4551 45.1172C75.9707 45.1172 75.5384 44.9935 75.1582 44.7461C74.7806 44.4961 74.4837 44.1406 74.2676 43.6797C74.054 43.2161 73.9473 42.6602 73.9473 42.0117C73.9473 41.3633 74.0553 40.8086 74.2715 40.3477C74.4902 39.8867 74.7897 39.5339 75.1699 39.2891C75.5501 39.0443 75.9811 38.9219 76.4629 38.9219C76.8353 38.9219 77.1348 38.9844 77.3613 39.1094C77.5905 39.2318 77.7676 39.375 77.8926 39.5391C78.0202 39.7031 78.1191 39.8477 78.1895 39.9727H78.2871V39H79.4277V47.25H78.2598ZM76.7129 44.1211C77.0488 44.1211 77.3327 44.0326 77.5645 43.8555C77.7988 43.6758 77.9759 43.4271 78.0957 43.1094C78.2181 42.7917 78.2793 42.4219 78.2793 42C78.2793 41.5833 78.2194 41.2187 78.0996 40.9062C77.9798 40.5937 77.804 40.3503 77.5723 40.1758C77.3405 40.0013 77.054 39.9141 76.7129 39.9141C76.3613 39.9141 76.0684 40.0052 75.834 40.1875C75.5996 40.3698 75.4225 40.6185 75.3027 40.9336C75.1855 41.2487 75.127 41.6042 75.127 42C75.127 42.401 75.1868 42.7617 75.3066 43.082C75.4264 43.4023 75.6035 43.6562 75.8379 43.8437C76.0749 44.0286 76.3665 44.1211 76.7129 44.1211ZM84.7988 42.5117V39H85.9707V45H84.8223V43.9609H84.7598C84.6217 44.2813 84.4004 44.5482 84.0957 44.7617C83.7936 44.9727 83.4173 45.0781 82.9668 45.0781C82.5814 45.0781 82.2402 44.9935 81.9434 44.8242C81.6491 44.6523 81.4173 44.3984 81.248 44.0625C81.0814 43.7266 80.998 43.3112 80.998 42.8164V39H82.166V42.6758C82.166 43.0846 82.2793 43.4102 82.5059 43.6523C82.7324 43.8945 83.0267 44.0156 83.3887 44.0156C83.6074 44.0156 83.8249 43.9609 84.041 43.8516C84.2598 43.7422 84.4408 43.5768 84.584 43.3555C84.7298 43.1341 84.8014 42.8529 84.7988 42.5117ZM90.126 45.1211C89.5348 45.1211 89.0257 44.9948 88.5986 44.7422C88.1742 44.487 87.846 44.1289 87.6143 43.668C87.3851 43.2044 87.2705 42.6615 87.2705 42.0391C87.2705 41.4245 87.3851 40.8828 87.6143 40.4141C87.846 39.9453 88.1689 39.5794 88.583 39.3164C88.9997 39.0534 89.4867 38.9219 90.0439 38.9219C90.3825 38.9219 90.7106 38.9779 91.0283 39.0898C91.346 39.2018 91.6312 39.3776 91.8838 39.6172C92.1364 39.8568 92.3356 40.168 92.4814 40.5508C92.6273 40.931 92.7002 41.3932 92.7002 41.9375V42.3516H87.9307V41.4766H91.5557C91.5557 41.1693 91.4932 40.8971 91.3682 40.6602C91.2432 40.4206 91.0674 40.2318 90.8408 40.0937C90.6169 39.9557 90.3538 39.8867 90.0518 39.8867C89.7236 39.8867 89.4372 39.9674 89.1924 40.1289C88.9502 40.2878 88.7627 40.4961 88.6299 40.7539C88.4997 41.0091 88.4346 41.2865 88.4346 41.5859V42.2695C88.4346 42.6706 88.5049 43.0117 88.6455 43.293C88.7887 43.5742 88.988 43.7891 89.2432 43.9375C89.4984 44.0833 89.7965 44.1562 90.1377 44.1562C90.359 44.1562 90.5609 44.125 90.7432 44.0625C90.9255 43.9974 91.083 43.901 91.2158 43.7734C91.3486 43.6458 91.4502 43.4883 91.5205 43.3008L92.626 43.5C92.5374 43.8255 92.3786 44.1107 92.1494 44.3555C91.9229 44.5977 91.6377 44.7865 91.2939 44.9219C90.9528 45.0547 90.5635 45.1211 90.126 45.1211ZM98.208 37V45H97.001V37H98.208ZM102.118 45.1172C101.634 45.1172 101.201 44.9935 100.821 44.7461C100.444 44.4961 100.147 44.1406 99.9307 43.6797C99.7171 43.2161 99.6104 42.6602 99.6104 42.0117C99.6104 41.3633 99.7184 40.8086 99.9346 40.3477C100.153 39.8867 100.453 39.5339 100.833 39.2891C101.213 39.0443 101.644 38.9219 102.126 38.9219C102.498 38.9219 102.798 38.9844 103.024 39.1094C103.254 39.2318 103.431 39.375 103.556 39.5391C103.683 39.7031 103.782 39.8477 103.853 39.9727H103.923V37H105.091V45H103.95V44.0664H103.853C103.782 44.194 103.681 44.3398 103.548 44.5039C103.418 44.668 103.238 44.8112 103.009 44.9336C102.78 45.056 102.483 45.1172 102.118 45.1172ZM102.376 44.1211C102.712 44.1211 102.996 44.0326 103.228 43.8555C103.462 43.6758 103.639 43.4271 103.759 43.1094C103.881 42.7917 103.942 42.4219 103.942 42C103.942 41.5833 103.882 41.2187 103.763 40.9062C103.643 40.5937 103.467 40.3503 103.235 40.1758C103.004 40.0013 102.717 39.9141 102.376 39.9141C102.024 39.9141 101.731 40.0052 101.497 40.1875C101.263 40.3698 101.086 40.6185 100.966 40.9336C100.849 41.2487 100.79 41.6042 100.79 42C100.79 42.401 100.85 42.7617 100.97 43.082C101.09 43.4023 101.267 43.6562 101.501 43.8437C101.738 44.0286 102.03 44.1211 102.376 44.1211ZM109.344 45.1211C108.753 45.1211 108.243 44.9948 107.816 44.7422C107.392 44.487 107.064 44.1289 106.832 43.668C106.603 43.2044 106.488 42.6615 106.488 42.0391C106.488 41.4245 106.603 40.8828 106.832 40.4141C107.064 39.9453 107.387 39.5794 107.801 39.3164C108.217 39.0534 108.704 38.9219 109.262 38.9219C109.6 38.9219 109.928 38.9779 110.246 39.0898C110.564 39.2018 110.849 39.3776 111.102 39.6172C111.354 39.8568 111.553 40.168 111.699 40.5508C111.845 40.931 111.918 41.3932 111.918 41.9375V42.3516H107.148V41.4766H110.773C110.773 41.1693 110.711 40.8971 110.586 40.6602C110.461 40.4206 110.285 40.2318 110.059 40.0937C109.835 39.9557 109.572 39.8867 109.27 39.8867C108.941 39.8867 108.655 39.9674 108.41 40.1289C108.168 40.2878 107.98 40.4961 107.848 40.7539C107.717 41.0091 107.652 41.2865 107.652 41.5859V42.2695C107.652 42.6706 107.723 43.0117 107.863 43.293C108.007 43.5742 108.206 43.7891 108.461 43.9375C108.716 44.0833 109.014 44.1562 109.355 44.1562C109.577 44.1562 109.779 44.125 109.961 44.0625C110.143 43.9974 110.301 43.901 110.434 43.7734C110.566 43.6458 110.668 43.4883 110.738 43.3008L111.844 43.5C111.755 43.8255 111.596 44.1107 111.367 44.3555C111.141 44.5977 110.855 44.7865 110.512 44.9219C110.171 45.0547 109.781 45.1211 109.344 45.1211ZM114.382 41.4375V45H113.214V39H114.335V39.9766H114.409C114.547 39.6589 114.763 39.4036 115.058 39.2109C115.354 39.0182 115.728 38.9219 116.179 38.9219C116.588 38.9219 116.946 39.0078 117.253 39.1797C117.56 39.349 117.799 39.6016 117.968 39.9375C118.137 40.2734 118.222 40.6888 118.222 41.1836V45H117.054V41.3242C117.054 40.8893 116.94 40.5495 116.714 40.3047C116.487 40.0573 116.176 39.9336 115.78 39.9336C115.509 39.9336 115.269 39.9922 115.058 40.1094C114.849 40.2266 114.684 40.3984 114.562 40.625C114.442 40.849 114.382 41.1198 114.382 41.4375ZM122.589 39V39.9375H119.312V39H122.589ZM120.19 37.5625H121.358V43.2383C121.358 43.4648 121.392 43.6354 121.46 43.75C121.528 43.862 121.615 43.9388 121.722 43.9805C121.831 44.0195 121.95 44.0391 122.077 44.0391C122.171 44.0391 122.253 44.0326 122.323 44.0195C122.394 44.0065 122.448 43.9961 122.487 43.9883L122.698 44.9531C122.631 44.9792 122.534 45.0052 122.409 45.0313C122.284 45.0599 122.128 45.0755 121.94 45.0781C121.633 45.0833 121.347 45.0286 121.081 44.9141C120.815 44.7995 120.601 44.6224 120.437 44.3828C120.272 44.1432 120.19 43.8424 120.19 43.4805V37.5625ZM123.881 45V39H125.049V45H123.881ZM124.471 38.0742C124.268 38.0742 124.093 38.0065 123.947 37.8711C123.804 37.7331 123.732 37.569 123.732 37.3789C123.732 37.1862 123.804 37.0221 123.947 36.8867C124.093 36.7487 124.268 36.6797 124.471 36.6797C124.674 36.6797 124.847 36.7487 124.99 36.8867C125.136 37.0221 125.209 37.1862 125.209 37.3789C125.209 37.569 125.136 37.7331 124.99 37.8711C124.847 38.0065 124.674 38.0742 124.471 38.0742ZM129.476 39V39.9375H126.085V39H129.476ZM127.015 45V38.3047C127.015 37.9297 127.097 37.6185 127.261 37.3711C127.425 37.1211 127.642 36.9349 127.913 36.8125C128.184 36.6875 128.478 36.625 128.796 36.625C129.03 36.625 129.231 36.6445 129.397 36.6836C129.564 36.7201 129.688 36.7539 129.769 36.7852L129.495 37.7305C129.44 37.7148 129.37 37.6966 129.284 37.6758C129.198 37.6523 129.094 37.6406 128.972 37.6406C128.688 37.6406 128.485 37.7109 128.362 37.8516C128.243 37.9922 128.183 38.1953 128.183 38.4609V45H127.015ZM130.681 45V39H131.849V45H130.681ZM131.271 38.0742C131.067 38.0742 130.893 38.0065 130.747 37.8711C130.604 37.7331 130.532 37.569 130.532 37.3789C130.532 37.1862 130.604 37.0221 130.747 36.8867C130.893 36.7487 131.067 36.6797 131.271 36.6797C131.474 36.6797 131.647 36.7487 131.79 36.8867C131.936 37.0221 132.009 37.1862 132.009 37.3789C132.009 37.569 131.936 37.7331 131.79 37.8711C131.647 38.0065 131.474 38.0742 131.271 38.0742ZM135.947 45.1211C135.367 45.1211 134.867 44.9896 134.447 44.7266C134.031 44.4609 133.71 44.0951 133.486 43.6289C133.262 43.1628 133.15 42.6289 133.15 42.0273C133.15 41.418 133.265 40.8802 133.494 40.4141C133.723 39.9453 134.046 39.5794 134.463 39.3164C134.88 39.0534 135.37 38.9219 135.936 38.9219C136.391 38.9219 136.798 39.0065 137.154 39.1758C137.511 39.3424 137.799 39.5768 138.018 39.8789C138.239 40.181 138.37 40.5339 138.412 40.9375H137.275C137.213 40.6562 137.07 40.4141 136.846 40.2109C136.624 40.0078 136.327 39.9062 135.955 39.9062C135.63 39.9062 135.344 39.9922 135.1 40.1641C134.857 40.3333 134.669 40.5755 134.533 40.8906C134.398 41.2031 134.33 41.5729 134.33 42C134.33 42.4375 134.396 42.8151 134.529 43.1328C134.662 43.4505 134.85 43.6966 135.092 43.8711C135.337 44.0456 135.624 44.1328 135.955 44.1328C136.176 44.1328 136.377 44.0924 136.557 44.0117C136.739 43.9284 136.891 43.8099 137.014 43.6562C137.139 43.5026 137.226 43.3177 137.275 43.1016H138.412C138.37 43.4896 138.244 43.8359 138.033 44.1406C137.822 44.4453 137.54 44.6849 137.186 44.8594C136.834 45.0339 136.421 45.1211 135.947 45.1211ZM141.407 45.1328C141.027 45.1328 140.683 45.0625 140.376 44.9219C140.069 44.7786 139.825 44.5716 139.646 44.3008C139.468 44.0299 139.38 43.6979 139.38 43.3047C139.38 42.9661 139.445 42.6875 139.575 42.4687C139.705 42.25 139.881 42.0768 140.103 41.9492C140.324 41.8216 140.571 41.7253 140.845 41.6602C141.118 41.5951 141.397 41.5456 141.681 41.5117C142.04 41.4701 142.332 41.4362 142.556 41.4102C142.78 41.3815 142.942 41.3359 143.044 41.2734C143.146 41.2109 143.196 41.1094 143.196 40.9687V40.9414C143.196 40.6003 143.1 40.3359 142.907 40.1484C142.717 39.9609 142.433 39.8672 142.056 39.8672C141.662 39.8672 141.353 39.9544 141.126 40.1289C140.902 40.3008 140.747 40.4922 140.661 40.7031L139.563 40.4531C139.694 40.0885 139.884 39.7943 140.134 39.5703C140.386 39.3437 140.677 39.1797 141.005 39.0781C141.333 38.974 141.678 38.9219 142.04 38.9219C142.28 38.9219 142.534 38.9505 142.802 39.0078C143.073 39.0625 143.325 39.1641 143.56 39.3125C143.797 39.4609 143.991 39.6732 144.142 39.9492C144.293 40.2227 144.368 40.5781 144.368 41.0156V45H143.228V44.1797H143.181C143.105 44.3307 142.992 44.4792 142.841 44.625C142.69 44.7708 142.496 44.8919 142.259 44.9883C142.022 45.0846 141.738 45.1328 141.407 45.1328ZM141.661 44.1953C141.984 44.1953 142.26 44.1315 142.489 44.0039C142.721 43.8763 142.897 43.7096 143.017 43.5039C143.139 43.2956 143.2 43.0729 143.2 42.8359V42.0625C143.159 42.1042 143.078 42.1432 142.958 42.1797C142.841 42.2135 142.707 42.2435 142.556 42.2695C142.405 42.293 142.257 42.3151 142.114 42.3359C141.971 42.3542 141.851 42.3698 141.755 42.3828C141.528 42.4115 141.321 42.4596 141.134 42.5273C140.949 42.5951 140.8 42.6927 140.688 42.8203C140.579 42.9453 140.524 43.112 140.524 43.3203C140.524 43.6094 140.631 43.8281 140.845 43.9766C141.058 44.1224 141.33 44.1953 141.661 44.1953ZM148.725 39V39.9375H145.447V39H148.725ZM146.326 37.5625H147.494V43.2383C147.494 43.4648 147.528 43.6354 147.596 43.75C147.663 43.862 147.751 43.9388 147.857 43.9805C147.967 44.0195 148.085 44.0391 148.213 44.0391C148.307 44.0391 148.389 44.0326 148.459 44.0195C148.529 44.0065 148.584 43.9961 148.623 43.9883L148.834 44.9531C148.766 44.9792 148.67 45.0052 148.545 45.0313C148.42 45.0599 148.264 45.0755 148.076 45.0781C147.769 45.0833 147.482 45.0286 147.217 44.9141C146.951 44.7995 146.736 44.6224 146.572 44.3828C146.408 44.1432 146.326 43.8424 146.326 43.4805V37.5625ZM150.017 45V39H151.185V45H150.017ZM150.606 38.0742C150.403 38.0742 150.229 38.0065 150.083 37.8711C149.94 37.7331 149.868 37.569 149.868 37.3789C149.868 37.1862 149.94 37.0221 150.083 36.8867C150.229 36.7487 150.403 36.6797 150.606 36.6797C150.81 36.6797 150.983 36.7487 151.126 36.8867C151.272 37.0221 151.345 37.1862 151.345 37.3789C151.345 37.569 151.272 37.7331 151.126 37.8711C150.983 38.0065 150.81 38.0742 150.606 38.0742ZM155.283 45.1211C154.721 45.1211 154.23 44.9922 153.811 44.7344C153.391 44.4766 153.066 44.1159 152.834 43.6523C152.602 43.1888 152.486 42.6471 152.486 42.0273C152.486 41.4049 152.602 40.8607 152.834 40.3945C153.066 39.9284 153.391 39.5664 153.811 39.3086C154.23 39.0508 154.721 38.9219 155.283 38.9219C155.846 38.9219 156.337 39.0508 156.756 39.3086C157.175 39.5664 157.501 39.9284 157.732 40.3945C157.964 40.8607 158.08 41.4049 158.08 42.0273C158.08 42.6471 157.964 43.1888 157.732 43.6523C157.501 44.1159 157.175 44.4766 156.756 44.7344C156.337 44.9922 155.846 45.1211 155.283 45.1211ZM155.287 44.1406C155.652 44.1406 155.954 44.0443 156.193 43.8516C156.433 43.6589 156.61 43.4023 156.725 43.082C156.842 42.7617 156.9 42.4089 156.9 42.0234C156.9 41.6406 156.842 41.2891 156.725 40.9687C156.61 40.6458 156.433 40.3867 156.193 40.1914C155.954 39.9961 155.652 39.8984 155.287 39.8984C154.92 39.8984 154.615 39.9961 154.373 40.1914C154.133 40.3867 153.955 40.6458 153.838 40.9687C153.723 41.2891 153.666 41.6406 153.666 42.0234C153.666 42.4089 153.723 42.7617 153.838 43.082C153.955 43.4023 154.133 43.6589 154.373 43.8516C154.615 44.0443 154.92 44.1406 155.287 44.1406ZM160.552 41.4375V45H159.384V39H160.505V39.9766H160.579C160.717 39.6589 160.933 39.4036 161.228 39.2109C161.524 39.0182 161.898 38.9219 162.349 38.9219C162.757 38.9219 163.116 39.0078 163.423 39.1797C163.73 39.349 163.968 39.6016 164.138 39.9375C164.307 40.2734 164.392 40.6888 164.392 41.1836V45H163.224V41.3242C163.224 40.8893 163.11 40.5495 162.884 40.3047C162.657 40.0573 162.346 39.9336 161.95 39.9336C161.679 39.9336 161.438 39.9922 161.228 40.1094C161.019 40.2266 160.854 40.3984 160.731 40.625C160.612 40.849 160.552 41.1198 160.552 41.4375ZM169.639 45H168.357L171.236 37H172.631L175.51 45H174.229L171.967 38.4531H171.904L169.639 45ZM169.854 41.8672H174.01V42.8828H169.854V41.8672ZM180.372 42.5117V39H181.544V45H180.396V43.9609H180.333C180.195 44.2813 179.974 44.5482 179.669 44.7617C179.367 44.9727 178.991 45.0781 178.54 45.0781C178.155 45.0781 177.813 44.9935 177.517 44.8242C177.222 44.6523 176.991 44.3984 176.821 44.0625C176.655 43.7266 176.571 43.3112 176.571 42.8164V39H177.739V42.6758C177.739 43.0846 177.853 43.4102 178.079 43.6523C178.306 43.8945 178.6 44.0156 178.962 44.0156C179.181 44.0156 179.398 43.9609 179.614 43.8516C179.833 43.7422 180.014 43.5768 180.157 43.3555C180.303 43.1341 180.375 42.8529 180.372 42.5117ZM185.914 39V39.9375H182.637V39H185.914ZM183.516 37.5625H184.684V43.2383C184.684 43.4648 184.717 43.6354 184.785 43.75C184.853 43.862 184.94 43.9388 185.047 43.9805C185.156 44.0195 185.275 44.0391 185.402 44.0391C185.496 44.0391 185.578 44.0326 185.648 44.0195C185.719 44.0065 185.773 43.9961 185.813 43.9883L186.023 44.9531C185.956 44.9792 185.859 45.0052 185.734 45.0313C185.609 45.0599 185.453 45.0755 185.266 45.0781C184.958 45.0833 184.672 45.0286 184.406 44.9141C184.141 44.7995 183.926 44.6224 183.762 44.3828C183.598 44.1432 183.516 43.8424 183.516 43.4805V37.5625ZM188.503 41.4375V45H187.335V37H188.487V39.9766H188.562C188.702 39.6536 188.917 39.3971 189.206 39.207C189.495 39.0169 189.873 38.9219 190.339 38.9219C190.75 38.9219 191.11 39.0065 191.417 39.1758C191.727 39.3451 191.966 39.5977 192.136 39.9336C192.308 40.2669 192.394 40.6836 192.394 41.1836V45H191.226V41.3242C191.226 40.8841 191.112 40.543 190.886 40.3008C190.659 40.056 190.344 39.9336 189.94 39.9336C189.664 39.9336 189.417 39.9922 189.198 40.1094C188.982 40.2266 188.812 40.3984 188.687 40.625C188.564 40.849 188.503 41.1198 188.503 41.4375ZM196.479 45.1211C195.917 45.1211 195.426 44.9922 195.007 44.7344C194.588 44.4766 194.262 44.1159 194.03 43.6523C193.799 43.1888 193.683 42.6471 193.683 42.0273C193.683 41.4049 193.799 40.8607 194.03 40.3945C194.262 39.9284 194.588 39.5664 195.007 39.3086C195.426 39.0508 195.917 38.9219 196.479 38.9219C197.042 38.9219 197.533 39.0508 197.952 39.3086C198.371 39.5664 198.697 39.9284 198.929 40.3945C199.16 40.8607 199.276 41.4049 199.276 42.0273C199.276 42.6471 199.16 43.1888 198.929 43.6523C198.697 44.1159 198.371 44.4766 197.952 44.7344C197.533 44.9922 197.042 45.1211 196.479 45.1211ZM196.483 44.1406C196.848 44.1406 197.15 44.0443 197.39 43.8516C197.629 43.6589 197.806 43.4023 197.921 43.082C198.038 42.7617 198.097 42.4089 198.097 42.0234C198.097 41.6406 198.038 41.2891 197.921 40.9687C197.806 40.6458 197.629 40.3867 197.39 40.1914C197.15 39.9961 196.848 39.8984 196.483 39.8984C196.116 39.8984 195.812 39.9961 195.569 40.1914C195.33 40.3867 195.151 40.6458 195.034 40.9687C194.92 41.2891 194.862 41.6406 194.862 42.0234C194.862 42.4089 194.92 42.7617 195.034 43.082C195.151 43.4023 195.33 43.6589 195.569 43.8516C195.812 44.0443 196.116 44.1406 196.483 44.1406ZM200.58 45V39H201.709V39.9531H201.771C201.881 39.6302 202.074 39.3763 202.35 39.1914C202.628 39.0039 202.943 38.9102 203.295 38.9102C203.368 38.9102 203.454 38.9128 203.553 38.918C203.654 38.9232 203.734 38.9297 203.791 38.9375V40.0547C203.744 40.0417 203.661 40.0273 203.541 40.0117C203.421 39.9935 203.301 39.9844 203.182 39.9844C202.906 39.9844 202.66 40.043 202.443 40.1602C202.23 40.2747 202.061 40.4349 201.936 40.6406C201.811 40.8437 201.748 41.0755 201.748 41.3359V45H200.58ZM204.802 45V39H205.97V45H204.802ZM205.392 38.0742C205.188 38.0742 205.014 38.0065 204.868 37.8711C204.725 37.7331 204.653 37.569 204.653 37.3789C204.653 37.1862 204.725 37.0221 204.868 36.8867C205.014 36.7487 205.188 36.6797 205.392 36.6797C205.595 36.6797 205.768 36.7487 205.911 36.8867C206.057 37.0221 206.13 37.1862 206.13 37.3789C206.13 37.569 206.057 37.7331 205.911 37.8711C205.768 38.0065 205.595 38.0742 205.392 38.0742ZM210.342 39V39.9375H207.064V39H210.342ZM207.943 37.5625H209.111V43.2383C209.111 43.4648 209.145 43.6354 209.213 43.75C209.281 43.862 209.368 43.9388 209.475 43.9805C209.584 44.0195 209.702 44.0391 209.83 44.0391C209.924 44.0391 210.006 44.0326 210.076 44.0195C210.146 44.0065 210.201 43.9961 210.24 43.9883L210.451 44.9531C210.383 44.9792 210.287 45.0052 210.162 45.0313C210.037 45.0599 209.881 45.0755 209.693 45.0781C209.386 45.0833 209.1 45.0286 208.834 44.9141C208.568 44.7995 208.354 44.6224 208.189 44.3828C208.025 44.1432 207.943 43.8424 207.943 43.4805V37.5625ZM212.372 47.25C212.198 47.25 212.039 47.2357 211.896 47.207C211.752 47.181 211.646 47.1523 211.575 47.1211L211.856 46.1641C212.07 46.2214 212.26 46.2461 212.427 46.2383C212.593 46.2305 212.741 46.168 212.868 46.0508C212.998 45.9336 213.113 45.7422 213.212 45.4766L213.356 45.0781L211.161 39H212.411L213.931 43.6562H213.993L215.513 39H216.767L214.294 45.8008C214.179 46.1133 214.034 46.3776 213.856 46.5938C213.679 46.8125 213.468 46.9766 213.224 47.0859C212.979 47.1953 212.695 47.25 212.372 47.25ZM223.303 45.1211C222.74 45.1211 222.249 44.9922 221.83 44.7344C221.411 44.4766 221.085 44.1159 220.854 43.6523C220.622 43.1888 220.506 42.6471 220.506 42.0273C220.506 41.4049 220.622 40.8607 220.854 40.3945C221.085 39.9284 221.411 39.5664 221.83 39.3086C222.249 39.0508 222.74 38.9219 223.303 38.9219C223.865 38.9219 224.356 39.0508 224.775 39.3086C225.195 39.5664 225.52 39.9284 225.752 40.3945C225.984 40.8607 226.1 41.4049 226.1 42.0273C226.1 42.6471 225.984 43.1888 225.752 43.6523C225.52 44.1159 225.195 44.4766 224.775 44.7344C224.356 44.9922 223.865 45.1211 223.303 45.1211ZM223.307 44.1406C223.671 44.1406 223.973 44.0443 224.213 43.8516C224.452 43.6589 224.63 43.4023 224.744 43.082C224.861 42.7617 224.92 42.4089 224.92 42.0234C224.92 41.6406 224.861 41.2891 224.744 40.9687C224.63 40.6458 224.452 40.3867 224.213 40.1914C223.973 39.9961 223.671 39.8984 223.307 39.8984C222.939 39.8984 222.635 39.9961 222.393 40.1914C222.153 40.3867 221.975 40.6458 221.857 40.9687C221.743 41.2891 221.686 41.6406 221.686 42.0234C221.686 42.4089 221.743 42.7617 221.857 43.082C221.975 43.4023 222.153 43.6589 222.393 43.8516C222.635 44.0443 222.939 44.1406 223.307 44.1406ZM230.259 39V39.9375H226.868V39H230.259ZM227.798 45V38.3047C227.798 37.9297 227.88 37.6185 228.044 37.3711C228.208 37.1211 228.425 36.9349 228.696 36.8125C228.967 36.6875 229.261 36.625 229.579 36.625C229.813 36.625 230.014 36.6445 230.181 36.6836C230.347 36.7201 230.471 36.7539 230.552 36.7852L230.278 37.7305C230.224 37.7148 230.153 37.6966 230.067 37.6758C229.981 37.6523 229.877 37.6406 229.755 37.6406C229.471 37.6406 229.268 37.7109 229.146 37.8516C229.026 37.9922 228.966 38.1953 228.966 38.4609V45H227.798ZM235.676 37V45H234.469V37H235.676ZM238.508 41.4375V45H237.34V39H238.461V39.9766H238.535C238.673 39.6589 238.889 39.4036 239.184 39.2109C239.48 39.0182 239.854 38.9219 240.305 38.9219C240.714 38.9219 241.072 39.0078 241.379 39.1797C241.686 39.349 241.924 39.6016 242.094 39.9375C242.263 40.2734 242.348 40.6888 242.348 41.1836V45H241.18V41.3242C241.18 40.8893 241.066 40.5495 240.84 40.3047C240.613 40.0573 240.302 39.9336 239.906 39.9336C239.635 39.9336 239.395 39.9922 239.184 40.1094C238.975 40.2266 238.81 40.3984 238.688 40.625C238.568 40.849 238.508 41.1198 238.508 41.4375ZM246.16 45.1172C245.676 45.1172 245.243 44.9935 244.863 44.7461C244.486 44.4961 244.189 44.1406 243.973 43.6797C243.759 43.2161 243.652 42.6602 243.652 42.0117C243.652 41.3633 243.76 40.8086 243.977 40.3477C244.195 39.8867 244.495 39.5339 244.875 39.2891C245.255 39.0443 245.686 38.9219 246.168 38.9219C246.54 38.9219 246.84 38.9844 247.066 39.1094C247.296 39.2318 247.473 39.375 247.598 39.5391C247.725 39.7031 247.824 39.8477 247.895 39.9727H247.965V37H249.133V45H247.992V44.0664H247.895C247.824 44.194 247.723 44.3398 247.59 44.5039C247.46 44.668 247.28 44.8112 247.051 44.9336C246.822 45.056 246.525 45.1172 246.16 45.1172ZM246.418 44.1211C246.754 44.1211 247.038 44.0326 247.27 43.8555C247.504 43.6758 247.681 43.4271 247.801 43.1094C247.923 42.7917 247.984 42.4219 247.984 42C247.984 41.5833 247.924 41.2187 247.805 40.9062C247.685 40.5937 247.509 40.3503 247.277 40.1758C247.046 40.0013 246.759 39.9141 246.418 39.9141C246.066 39.9141 245.773 40.0052 245.539 40.1875C245.305 40.3698 245.128 40.6185 245.008 40.9336C244.891 41.2487 244.832 41.6042 244.832 42C244.832 42.401 244.892 42.7617 245.012 43.082C245.132 43.4023 245.309 43.6562 245.543 43.8437C245.78 44.0286 246.072 44.1211 246.418 44.1211ZM250.8 45V39H251.968V45H250.8ZM251.39 38.0742C251.187 38.0742 251.012 38.0065 250.866 37.8711C250.723 37.7331 250.651 37.569 250.651 37.3789C250.651 37.1862 250.723 37.0221 250.866 36.8867C251.012 36.7487 251.187 36.6797 251.39 36.6797C251.593 36.6797 251.766 36.7487 251.909 36.8867C252.055 37.0221 252.128 37.1862 252.128 37.3789C252.128 37.569 252.055 37.7331 251.909 37.8711C251.766 38.0065 251.593 38.0742 251.39 38.0742ZM255.285 45.1328C254.905 45.1328 254.561 45.0625 254.254 44.9219C253.947 44.7786 253.703 44.5716 253.523 44.3008C253.346 44.0299 253.258 43.6979 253.258 43.3047C253.258 42.9661 253.323 42.6875 253.453 42.4687C253.583 42.25 253.759 42.0768 253.98 41.9492C254.202 41.8216 254.449 41.7253 254.723 41.6602C254.996 41.5951 255.275 41.5456 255.559 41.5117C255.918 41.4701 256.21 41.4362 256.434 41.4102C256.658 41.3815 256.82 41.3359 256.922 41.2734C257.023 41.2109 257.074 41.1094 257.074 40.9687V40.9414C257.074 40.6003 256.978 40.3359 256.785 40.1484C256.595 39.9609 256.311 39.8672 255.934 39.8672C255.54 39.8672 255.23 39.9544 255.004 40.1289C254.78 40.3008 254.625 40.4922 254.539 40.7031L253.441 40.4531C253.572 40.0885 253.762 39.7943 254.012 39.5703C254.264 39.3437 254.555 39.1797 254.883 39.0781C255.211 38.974 255.556 38.9219 255.918 38.9219C256.158 38.9219 256.411 38.9505 256.68 39.0078C256.951 39.0625 257.203 39.1641 257.438 39.3125C257.674 39.4609 257.868 39.6732 258.02 39.9492C258.171 40.2227 258.246 40.5781 258.246 41.0156V45H257.105V44.1797H257.059C256.983 44.3307 256.87 44.4792 256.719 44.625C256.568 44.7708 256.374 44.8919 256.137 44.9883C255.9 45.0846 255.616 45.1328 255.285 45.1328ZM255.539 44.1953C255.862 44.1953 256.138 44.1315 256.367 44.0039C256.599 43.8763 256.775 43.7096 256.895 43.5039C257.017 43.2956 257.078 43.0729 257.078 42.8359V42.0625C257.036 42.1042 256.956 42.1432 256.836 42.1797C256.719 42.2135 256.585 42.2435 256.434 42.2695C256.283 42.293 256.135 42.3151 255.992 42.3359C255.849 42.3542 255.729 42.3698 255.633 42.3828C255.406 42.4115 255.199 42.4596 255.012 42.5273C254.827 42.5951 254.678 42.6927 254.566 42.8203C254.457 42.9453 254.402 43.112 254.402 43.3203C254.402 43.6094 254.509 43.8281 254.723 43.9766C254.936 44.1224 255.208 44.1953 255.539 44.1953Z" fill="black"/>
</g>
<defs>
<linearGradient id="paint0_linear_59_556" x1="151" y1="0" x2="151" y2="195" gradientUnits="userSpaceOnUse">
<stop stop-color="#E38F09"/>
<stop offset="0.2" stop-color="#F4D4A1"/>
<stop offset="0.5" stop-color="white"/>
<stop offset="0.8" stop-color="#AFD2A5"/>
<stop offset="1" stop-color="#3D9323"/>
</linearGradient>
<clipPath id="clip0_59_556">
<rect width="302" height="195" rx="10" fill="white"/>
</clipPath>
<clipPath id="clip1_59_556">
<rect width="44" height="30" fill="white" transform="translate(8 15)"/>
</clipPath>
</defs>
</svg>
