<svg width="38" height="19" viewBox="0 0 38 19" fill="none" xmlns="http://www.w3.org/2000/svg">
<path d="M35.4586 9.29039C35.2648 9.6179 35.1459 9.98463 35.1106 10.364C35.0441 10.8301 34.9331 11.2888 34.7793 11.7336C34.5487 12.3637 34.149 12.9175 33.6246 13.3336C33.004 11.6896 32.1023 10.1673 30.96 8.83519C31.5951 8.59537 32.2828 8.53181 32.9509 8.65119C33.4241 8.73886 33.8877 8.87283 34.3349 9.05119C34.6882 9.20973 35.0709 9.29152 35.4578 9.29119L35.4586 9.29039Z" fill="#580F66"/>
<path d="M28.5097 2.49519C28.5074 2.87664 28.589 3.2539 28.7486 3.59999C28.9308 4.03458 29.0679 4.48682 29.158 4.94959C29.2792 5.60586 29.2141 6.28318 28.97 6.90399C27.594 5.78027 26.0381 4.89924 24.3687 4.29839C24.8009 3.77721 25.3673 3.38512 26.006 3.16479C26.4621 3.01016 26.9324 2.90162 27.41 2.84079C27.7936 2.80253 28.1653 2.68515 28.5018 2.49599L28.5097 2.49519Z" fill="#580F66"/>
<path d="M34.3613 15.9792C35.0251 16.0776 35.6501 16.354 36.1707 16.7792C36.5431 17.0941 36.8818 17.4472 37.1812 17.8328C37.3975 18.1407 37.6766 18.3987 37.9999 18.5896H34.5755C34.5802 17.7149 34.5085 16.8414 34.3613 15.9792Z" fill="#580F66"/>
<path d="M9.49495 2.4952C9.83273 2.68512 10.2062 2.80227 10.5915 2.8392C11.0692 2.89992 11.5395 3.00874 11.9955 3.164C12.6345 3.38381 13.2009 3.77599 13.6328 4.2976C11.9622 4.89657 10.4052 5.77659 9.02828 6.9C8.78162 6.27982 8.71615 5.60184 8.83954 4.9456C8.92958 4.48257 9.06674 4.03006 9.24887 3.5952C9.41183 3.25122 9.49721 2.87535 9.49893 2.4944L9.49495 2.4952Z" fill="#580F66"/>
<path d="M2.54199 9.2904C2.92897 9.29109 3.31168 9.20928 3.66486 9.0504C4.11194 8.87229 4.57522 8.73832 5.04814 8.6504C5.71618 8.53102 6.4039 8.59458 7.03905 8.8344C5.89881 10.1667 4.99894 11.6887 4.38 13.332C3.85577 12.9158 3.4564 12.3621 3.22607 11.732C3.07078 11.2865 2.9585 10.8271 2.8908 10.36C2.85476 9.98079 2.73594 9.61422 2.54279 9.2864L2.54199 9.2904Z" fill="#580F66"/>
<path d="M0 18.5896C0.332742 18.4007 0.621596 18.1427 0.847329 17.8328C1.14171 17.4577 1.47368 17.1141 1.838 16.8072C2.35827 16.382 2.98305 16.1057 3.64654 16.0072C3.49782 16.8653 3.42348 17.7346 3.42436 18.6056L0 18.5896Z" fill="#580F66"/>
<path d="M18.9994 0C19.1948 0.330031 19.4585 0.614038 19.7727 0.8328C20.162 1.11569 20.5202 1.43938 20.8414 1.7984C21.2784 2.31099 21.5625 2.93716 21.6608 3.6048C19.8994 3.3112 18.1018 3.3112 16.3403 3.6048C16.4474 2.94237 16.7374 2.32343 17.1773 1.8184C17.492 1.46054 17.8433 1.13689 18.2253 0.8528C18.5418 0.628244 18.8059 0.337259 18.9994 0Z" fill="#580F66"/>
<path d="M15.8342 18.616H17.0088C17.1641 17.6472 16.8615 16.8984 15.8589 17.0744C15.0115 17.2264 14.1069 18.048 13.5542 18.616H15.1007C15.2727 18.508 15.6128 18.38 15.7514 18.476C15.7754 18.4909 15.7955 18.5114 15.8099 18.5357C15.8244 18.5601 15.8327 18.5877 15.8342 18.616Z" fill="#580F66"/>
<path d="M21.1418 18.612H22.6071C22.7118 16.8979 22.3626 15.1865 21.595 13.652C21.2566 12.9757 20.7606 12.3917 20.1491 11.9495C19.5376 11.5074 18.8288 11.2204 18.083 11.1128C15.7943 10.784 13.4904 11.7296 11.5337 13.0872C9.413 14.5624 7.65782 16.568 6.13916 18.6072H8.07512C9.81835 16.2072 13.8304 12.5192 16.7809 12.4952C17.7196 12.4433 18.645 12.7365 19.3843 13.32C19.8955 13.7688 20.5183 14.6336 20.4856 15.32C20.4856 15.74 20.0763 15.8688 19.7243 15.72C19.4449 15.5838 19.2105 15.3696 19.049 15.1032C18.7383 14.6807 18.3186 14.3515 17.8352 14.151C17.3519 13.9505 16.8233 13.8864 16.3063 13.9656C14.9971 14.1424 13.3717 15.1352 12.3245 16.0408C11.4272 16.8239 10.5875 17.6712 9.81198 18.576H11.8714C12.6095 17.6704 13.4902 16.8924 14.4787 16.2728C14.8427 16.0479 15.2295 15.8626 15.6326 15.72C16.7053 15.36 17.7692 15.452 18.2439 16.76C18.4296 17.3359 18.484 17.9465 18.4031 18.5464V18.58H19.8191V18.54C19.8191 18.0872 19.8191 17.7824 19.8485 17.34C19.886 16.94 20.0078 16.54 20.3765 16.5064C21.1546 16.3464 21.1132 18.0408 21.1299 18.5864L21.1418 18.612Z" fill="#580F66"/>
<path d="M24.1498 18.612H25.6278C25.7238 16.9046 25.5258 15.1934 25.0425 13.5536C24.9405 13.2366 24.8219 12.9253 24.6873 12.6208C24.3731 11.922 23.9595 11.2728 23.4593 10.6936C22.89 10.028 22.2223 9.45409 21.4796 8.992C21.2542 8.8552 21.0249 8.7312 20.7875 8.616C20.5485 8.50335 20.304 8.40296 20.0549 8.3152C17.188 7.3144 14.2629 8.0264 11.8197 9.3248C11.3419 9.5808 10.8848 9.85467 10.4484 10.1464C10.0104 10.4384 9.59706 10.7392 9.22038 11.0472C8.64331 11.5007 8.09637 11.9916 7.58306 12.5168C7.46838 12.6328 7.35769 12.7568 7.25177 12.8736C6.9611 13.1936 6.51116 13.6464 6.64574 14.1152C6.74768 14.484 7.23903 14.3752 7.40706 14.2472C7.6844 14.0871 7.94505 13.8995 8.18511 13.6872C8.5164 13.4104 8.83175 13.1144 9.16304 12.8336C10.393 11.7731 11.7723 10.9012 13.2563 10.2464C13.555 10.1184 13.8536 10.0064 14.1483 9.8976C14.4429 9.7888 14.7416 9.7096 15.0322 9.6336C17.5806 8.9888 20.3535 9.4096 22.1095 11.436C23.8169 13.3904 24.1275 16.0096 24.1561 18.6096L24.1498 18.612ZM5.80478 16.4C5.98269 16.232 6.14675 16.0498 6.29534 15.8552C6.39764 15.7526 6.46772 15.6221 6.49688 15.4799C6.52605 15.3377 6.51301 15.19 6.45939 15.0552C6.42557 14.9803 6.37486 14.9143 6.31127 14.8624C6.24832 14.8133 6.17592 14.7779 6.09864 14.7584C5.9821 14.7384 5.86231 14.7519 5.75301 14.7971C5.64371 14.8424 5.54932 14.9177 5.48066 15.0144C5.2007 15.3392 5.00533 15.7287 4.91206 16.148C4.90171 16.2186 4.90171 16.2903 4.91206 16.3608C4.91832 16.4267 4.93783 16.4907 4.9694 16.5488C4.99244 16.5938 5.02773 16.6313 5.07115 16.6569C5.11457 16.6825 5.16434 16.6953 5.21468 16.6936H5.37395C5.5391 16.633 5.68682 16.5325 5.80399 16.4008L5.80478 16.4Z" fill="#580F66"/>
<path d="M27.8339 18.612C27.9497 18.6144 28.064 18.5861 28.1654 18.5299C28.2668 18.4737 28.3516 18.3917 28.4113 18.292C28.444 18.2363 28.4707 18.1773 28.4909 18.116C28.5123 18.0413 28.5262 17.9647 28.5323 17.8872C28.6502 13.8824 27.3904 10.5456 25.2577 8.2752C24.8444 7.83808 24.3953 7.43666 23.915 7.0752C23.4358 6.72021 22.9269 6.40758 22.394 6.1408C20.2189 5.10564 17.7748 4.78353 15.4075 5.22C15.0229 5.292 14.6414 5.38 14.2647 5.488C12.1872 6.11709 10.2964 7.25173 8.76027 8.7912C8.45686 9.096 8.16619 9.408 7.89224 9.7368C7.75686 9.9008 7.62626 10.0648 7.48291 10.2336C8.55967 9.31879 9.7309 8.52251 10.9765 7.8584C11.2545 7.7144 11.5284 7.5784 11.7944 7.4584C12.0604 7.3384 12.3519 7.2136 12.6378 7.1056C13.6723 6.70366 14.7533 6.43485 15.8551 6.3056C16.9289 6.18853 18.0135 6.21543 19.0803 6.3856C19.8342 6.50116 20.5728 6.70134 21.2823 6.9824C21.4177 7.0344 21.5443 7.0944 21.6916 7.156C21.8198 7.21044 21.9443 7.27324 22.0643 7.344C24.4534 8.624 26.1162 11.2576 26.8488 14.224C27.1454 15.394 27.2912 16.5975 27.2829 17.8048V17.8368C27.2761 17.972 27.3015 18.1068 27.3569 18.2302C27.4123 18.3536 27.4961 18.462 27.6014 18.5464C27.6382 18.5689 27.6779 18.5864 27.7193 18.5984C27.7642 18.6048 27.8097 18.6048 27.8546 18.5984L27.8339 18.612Z" fill="#580F66"/>
<path d="M23.5061 5.22319C29.4119 7.13519 33.4089 12.5256 33.4352 18.612H30.5906C30.7785 13.1608 28.3472 8.23839 23.5029 5.22319H23.5061Z" fill="#580F66"/>
</svg>
