<svg width="25" height="20" viewBox="0 0 25 20" fill="none" xmlns="http://www.w3.org/2000/svg">
<path d="M8.5625 14.5625L19.6875 11.625C20 11.5417 20.2344 11.349 20.3906 11.0469C20.5469 10.7448 20.5833 10.4375 20.5 10.125C20.4167 9.8125 20.2344 9.57812 19.9531 9.42188C19.6719 9.26562 19.375 9.22917 19.0625 9.3125L16 10.125L11 5.4375L9.25 5.875L12.25 11.125L9.25 11.875L7.6875 10.6875L6.5 11L8.5625 14.5625ZM22.5 20H2.5C1.8125 20 1.22396 19.7552 0.734375 19.2656C0.244792 18.776 0 18.1875 0 17.5V12.5C0.6875 12.5 1.27604 12.2552 1.76562 11.7656C2.25521 11.276 2.5 10.6875 2.5 10C2.5 9.3125 2.25521 8.72396 1.76562 8.23438C1.27604 7.74479 0.6875 7.5 0 7.5V2.5C0 1.8125 0.244792 1.22396 0.734375 0.734375C1.22396 0.244792 1.8125 0 2.5 0H22.5C23.1875 0 23.776 0.244792 24.2656 0.734375C24.7552 1.22396 25 1.8125 25 2.5V17.5C25 18.1875 24.7552 18.776 24.2656 19.2656C23.776 19.7552 23.1875 20 22.5 20ZM22.5 17.5V2.5H2.5V5.6875C3.27083 6.14583 3.88021 6.75521 4.32812 7.51563C4.77604 8.27604 5 9.10417 5 10C5 10.8958 4.77604 11.724 4.32812 12.4844C3.88021 13.2448 3.27083 13.8542 2.5 14.3125V17.5H22.5Z" fill="#580F66"/>
</svg>
