<svg width="31" height="23" viewBox="0 0 31 23" fill="none" xmlns="http://www.w3.org/2000/svg">
<path d="M7.75 23C5.61288 23 3.78693 22.2453 2.27216 20.7359C0.757386 19.2266 0 17.3818 0 15.2016C0 13.3328 0.551894 11.6677 1.65568 10.2063C2.75947 8.74479 4.20379 7.81042 5.98864 7.40313C6.57576 5.19896 7.75 3.41406 9.51136 2.04844C11.2727 0.682813 13.2689 0 15.5 0C18.2477 0 20.5786 0.976302 22.4926 2.92891C24.4066 4.88151 25.3636 7.25937 25.3636 10.0625C26.9841 10.2542 28.3286 10.9669 29.3972 12.2008C30.4657 13.4346 31 14.8781 31 16.5312C31 18.3281 30.3835 19.8555 29.1506 21.1133C27.9176 22.3711 26.4205 23 24.6591 23H16.9091C16.1341 23 15.4706 22.7185 14.9188 22.1555C14.3669 21.5924 14.0909 20.9156 14.0909 20.125V12.7219L11.8364 14.95L9.86364 12.9375L15.5 7.1875L21.1364 12.9375L19.1636 14.95L16.9091 12.7219V20.125H24.6591C25.6455 20.125 26.4792 19.7776 27.1602 19.0828C27.8413 18.388 28.1818 17.5375 28.1818 16.5312C28.1818 15.525 27.8413 14.6745 27.1602 13.9797C26.4792 13.2849 25.6455 12.9375 24.6591 12.9375H22.5455V10.0625C22.5455 8.07396 21.8585 6.37891 20.4847 4.97734C19.1108 3.57578 17.4492 2.875 15.5 2.875C13.5508 2.875 11.8892 3.57578 10.5153 4.97734C9.14148 6.37891 8.45455 8.07396 8.45455 10.0625H7.75C6.38788 10.0625 5.22538 10.5536 4.2625 11.5359C3.29962 12.5182 2.81818 13.7042 2.81818 15.0938C2.81818 16.4833 3.29962 17.6693 4.2625 18.6516C5.22538 19.6339 6.38788 20.125 7.75 20.125H11.2727V23H7.75Z" fill="#580F66"/>
</svg>
