<svg width="31" height="31" viewBox="0 0 31 31" fill="none" xmlns="http://www.w3.org/2000/svg">
<mask id="mask0_29_705" style="mask-type:alpha" maskUnits="userSpaceOnUse" x="0" y="0" width="31" height="31">
<rect width="31" height="31" fill="#D9D9D9"/>
</mask>
<g mask="url(#mask0_29_705)">
<path d="M28.4168 7.74999V23.25C28.4168 23.9604 28.1639 24.5686 27.658 25.0745C27.1521 25.5804 26.5439 25.8333 25.8335 25.8333H5.16683C4.45641 25.8333 3.84825 25.5804 3.34235 25.0745C2.83645 24.5686 2.5835 23.9604 2.5835 23.25V7.74999C2.5835 7.03957 2.83645 6.43141 3.34235 5.92551C3.84825 5.41961 4.45641 5.16666 5.16683 5.16666H25.8335C26.5439 5.16666 27.1521 5.41961 27.658 5.92551C28.1639 6.43141 28.4168 7.03957 28.4168 7.74999ZM5.16683 10.3333H25.8335V7.74999H5.16683V10.3333ZM5.16683 15.5V23.25H25.8335V15.5H5.16683Z" fill="#580F66"/>
</g>
</svg>
