<svg width="22" height="20" viewBox="0 0 22 20" fill="none" xmlns="http://www.w3.org/2000/svg">
<path d="M10.8604 19.5L7.39375 16.4125C6.09375 15.2389 4.97882 14.1917 4.04896 13.2708C3.1191 12.35 2.35174 11.4833 1.74688 10.6708C1.14201 9.85833 0.699653 9.07292 0.419792 8.31458C0.139931 7.55625 0 6.76181 0 5.93125C0 4.23403 0.56875 2.82118 1.70625 1.69271C2.84375 0.564236 4.26111 0 5.95833 0C6.89722 0 7.79097 0.198611 8.63958 0.595833C9.4882 0.993056 10.2285 1.55278 10.8604 2.275C11.4924 1.55278 12.2326 0.993056 13.0813 0.595833C13.9299 0.198611 14.8236 0 15.7625 0C17.4597 0 18.8771 0.564236 20.0146 1.69271C21.1521 2.82118 21.7208 4.23403 21.7208 5.93125C21.7208 6.76181 21.5809 7.55625 21.301 8.31458C21.0212 9.07292 20.5788 9.85833 19.974 10.6708C19.3691 11.4833 18.6017 12.35 17.6719 13.2708C16.742 14.1917 15.6271 15.2389 14.3271 16.4125L10.8604 19.5ZM2.49167 7.58333H19.2292C19.3375 7.29444 19.4188 7.01458 19.4729 6.74375C19.5271 6.47292 19.5542 6.20208 19.5542 5.93125C19.5542 4.84792 19.1795 3.94965 18.4302 3.23646C17.6809 2.52326 16.7917 2.16667 15.7625 2.16667C14.9139 2.16667 14.133 2.41493 13.4198 2.91146C12.7066 3.40799 12.0701 4.0625 11.5104 4.875H10.2104C9.6507 4.0625 9.01424 3.40799 8.30104 2.91146C7.58785 2.41493 6.80695 2.16667 5.95833 2.16667C4.92917 2.16667 4.03993 2.52326 3.29063 3.23646C2.54132 3.94965 2.16667 4.84792 2.16667 5.93125C2.16667 6.20208 2.19375 6.47292 2.24792 6.74375C2.30208 7.01458 2.38333 7.29444 2.49167 7.58333ZM5.25417 11.375H16.4667C16.7556 11.0681 17.0174 10.7837 17.2521 10.5219C17.4868 10.2601 17.7035 10.0028 17.9021 9.75H3.81875C4.01736 10.0028 4.23403 10.2601 4.46875 10.5219C4.70347 10.7837 4.96528 11.0681 5.25417 11.375ZM10.8604 16.575C11.5104 15.9972 12.1198 15.4601 12.6885 14.9635C13.2573 14.467 13.7764 13.9931 14.2458 13.5417H7.475C7.94445 13.9931 8.46354 14.467 9.03229 14.9635C9.60104 15.4601 10.2104 15.9972 10.8604 16.575Z" fill="#580F66"/>
</svg>
