<svg width="32" height="32" viewBox="0 0 32 32" fill="none" xmlns="http://www.w3.org/2000/svg">
<mask id="mask0_29_676" style="mask-type:alpha" maskUnits="userSpaceOnUse" x="0" y="0" width="32" height="32">
<rect width="32" height="32" fill="#D9D9D9"/>
</mask>
<g mask="url(#mask0_29_676)">
<path d="M18.6665 17.3333H25.3332V14.6667H18.6665V17.3333ZM18.6665 13.3333H25.3332V10.6667H18.6665V13.3333ZM6.6665 21.3333H17.3332V20.6C17.3332 19.6 16.8443 18.8056 15.8665 18.2167C14.8887 17.6278 13.5998 17.3333 11.9998 17.3333C10.3998 17.3333 9.11095 17.6278 8.13317 18.2167C7.15539 18.8056 6.6665 19.6 6.6665 20.6V21.3333ZM11.9998 16C12.7332 16 13.3609 15.7389 13.8832 15.2167C14.4054 14.6945 14.6665 14.0667 14.6665 13.3333C14.6665 12.6 14.4054 11.9722 13.8832 11.45C13.3609 10.9278 12.7332 10.6667 11.9998 10.6667C11.2665 10.6667 10.6387 10.9278 10.1165 11.45C9.59428 11.9722 9.33317 12.6 9.33317 13.3333C9.33317 14.0667 9.59428 14.6945 10.1165 15.2167C10.6387 15.7389 11.2665 16 11.9998 16ZM5.33317 26.6667C4.59984 26.6667 3.97206 26.4056 3.44984 25.8833C2.92762 25.3611 2.6665 24.7333 2.6665 24V8.00001C2.6665 7.26668 2.92762 6.6389 3.44984 6.11668C3.97206 5.59445 4.59984 5.33334 5.33317 5.33334H26.6665C27.3998 5.33334 28.0276 5.59445 28.5498 6.11668C29.0721 6.6389 29.3332 7.26668 29.3332 8.00001V24C29.3332 24.7333 29.0721 25.3611 28.5498 25.8833C28.0276 26.4056 27.3998 26.6667 26.6665 26.6667H5.33317ZM5.33317 24H26.6665V8.00001H5.33317V24Z" fill="#580F66"/>
</g>
</svg>
