<svg width="13" height="19" viewBox="0 0 13 19" fill="none" xmlns="http://www.w3.org/2000/svg">
<path d="M8.36875 19L1.08333 11.6111V9.5H4.875C5.83194 9.5 6.65799 9.19653 7.35313 8.58958C8.04826 7.98264 8.46806 7.23056 8.6125 6.33333H0V4.22222H8.2875C7.98056 3.60648 7.52465 3.10069 6.91979 2.70486C6.31493 2.30903 5.63333 2.11111 4.875 2.11111H0V0H13V2.11111H9.47917C9.73195 2.41019 9.95764 2.73565 10.1562 3.0875C10.3549 3.43935 10.5083 3.81759 10.6167 4.22222H13V6.33333H10.8063C10.6618 7.8287 10.0299 9.08218 8.91042 10.0938C7.79097 11.1053 6.44583 11.6111 4.875 11.6111H4.08958L11.375 19H8.36875Z" fill="#580F66"/>
</svg>
