<svg width="29" height="29" viewBox="0 0 29 29" fill="none" xmlns="http://www.w3.org/2000/svg">
<mask id="mask0_29_670" style="mask-type:alpha" maskUnits="userSpaceOnUse" x="0" y="0" width="29" height="29">
<rect width="29" height="29" fill="#D9D9D9"/>
</mask>
<g mask="url(#mask0_29_670)">
<path d="M9.66683 14.5V12.0833H19.3335V14.5H9.66683ZM9.66683 9.66666V7.24999H19.3335V9.66666H9.66683ZM7.25016 16.9167H16.3127C16.8967 16.9167 17.4404 17.0425 17.9439 17.2943C18.4474 17.546 18.8703 17.9035 19.2127 18.3667L21.7502 21.6896V4.83332H7.25016V16.9167ZM7.25016 24.1667H20.6022L17.3095 19.8469C17.1887 19.6858 17.0427 19.5599 16.8715 19.4693C16.7003 19.3786 16.5141 19.3333 16.3127 19.3333H7.25016V24.1667ZM21.7502 26.5833H7.25016C6.58558 26.5833 6.01666 26.3467 5.54339 25.8734C5.07013 25.4002 4.8335 24.8312 4.8335 24.1667V4.83332C4.8335 4.16874 5.07013 3.59982 5.54339 3.12655C6.01666 2.65329 6.58558 2.41666 7.25016 2.41666H21.7502C22.4147 2.41666 22.9837 2.65329 23.4569 3.12655C23.9302 3.59982 24.1668 4.16874 24.1668 4.83332V24.1667C24.1668 24.8312 23.9302 25.4002 23.4569 25.8734C22.9837 26.3467 22.4147 26.5833 21.7502 26.5833Z" fill="#580F66"/>
</g>
</svg>
