<svg width="23" height="21" viewBox="0 0 23 21" fill="none" xmlns="http://www.w3.org/2000/svg">
<path d="M3.375 20.8333C2.75625 20.8333 2.22656 20.6293 1.78594 20.2214C1.34531 19.8134 1.125 19.3229 1.125 18.75V7.00521C0.7875 6.81424 0.515625 6.56684 0.309375 6.26302C0.103125 5.9592 0 5.60764 0 5.20833V2.08333C0 1.51042 0.220313 1.01997 0.660938 0.611979C1.10156 0.203993 1.63125 0 2.25 0H20.25C20.8687 0 21.3984 0.203993 21.8391 0.611979C22.2797 1.01997 22.5 1.51042 22.5 2.08333V5.20833C22.5 5.60764 22.3969 5.9592 22.1906 6.26302C21.9844 6.56684 21.7125 6.81424 21.375 7.00521V18.75C21.375 19.3229 21.1547 19.8134 20.7141 20.2214C20.2734 20.6293 19.7437 20.8333 19.125 20.8333H3.375ZM3.375 7.29167V18.75H19.125V7.29167H3.375ZM2.25 5.20833H20.25V2.08333H2.25V5.20833ZM7.875 12.5H14.625V10.4167H7.875V12.5Z" fill="#580F66"/>
</svg>
