<svg width="45" height="45" viewBox="0 0 45 45" fill="none" xmlns="http://www.w3.org/2000/svg">
<path d="M28.125 16.1719H26.7188V19.6875H28.125V16.1719Z" fill="#580F66"/>
<path d="M30.9375 16.1719H29.5312V19.6875H30.9375V16.1719Z" fill="#580F66"/>
<path d="M28.125 21.0938H26.7188V22.5H28.125V21.0938Z" fill="#580F66"/>
<path d="M30.9375 21.0938H29.5312V22.5H30.9375V21.0938Z" fill="#580F66"/>
<path d="M23.2031 23.9062H21.7969V25.3125H23.2031V23.9062Z" fill="#580F66"/>
<path d="M19.6875 37.9688H18.2812V39.375H19.6875V37.9688Z" fill="#580F66"/>
<path d="M30.9375 23.9062H29.5312V25.3125H30.9375V23.9062Z" fill="#580F66"/>
<path d="M28.125 26.7188H26.7188V28.125H28.125V26.7188Z" fill="#580F66"/>
<path d="M30.9375 26.7188H29.5312V28.125H30.9375V26.7188Z" fill="#580F66"/>
<path d="M1.40625 1.40625H3.51562V0H0.703125C0.315 0 0 0.315 0 0.703125V3.51562H1.40625V1.40625Z" fill="#580F66"/>
<path d="M44.2969 0H41.4844V1.40625H43.5938V3.51562H45V0.703125C45 0.315 44.685 0 44.2969 0Z" fill="#580F66"/>
<path d="M1.40625 41.4844H0V44.2969C0 44.685 0.315 45 0.703125 45H3.51562V43.5938H1.40625V41.4844Z" fill="#580F66"/>
<path d="M43.5938 43.5938H41.4844V45H44.2969C44.685 45 45 44.685 45 44.2969V41.4844H43.5938V43.5938Z" fill="#580F66"/>
<path d="M2.8125 3.51562V11.9531C2.8125 12.3413 3.1275 12.6562 3.51562 12.6562H11.9531C12.3413 12.6562 12.6562 12.3413 12.6562 11.9531V3.51562C12.6562 3.1275 12.3413 2.8125 11.9531 2.8125H3.51562C3.1275 2.8125 2.8125 3.1275 2.8125 3.51562ZM4.21875 4.21875H11.25V11.25H4.21875V4.21875Z" fill="#580F66"/>
<path d="M9.14062 5.625H6.32812C5.94 5.625 5.625 5.94 5.625 6.32812V9.14062C5.625 9.52875 5.94 9.84375 6.32812 9.84375H9.14062C9.52875 9.84375 9.84375 9.52875 9.84375 9.14062V6.32812C9.84375 5.94 9.52875 5.625 9.14062 5.625ZM8.4375 8.4375H7.03125V7.03125H8.4375V8.4375Z" fill="#580F66"/>
<path d="M33.0469 12.6562H41.4844C41.8725 12.6562 42.1875 12.3413 42.1875 11.9531V3.51562C42.1875 3.1275 41.8725 2.8125 41.4844 2.8125H33.0469C32.6587 2.8125 32.3438 3.1275 32.3438 3.51562V11.9531C32.3438 12.3413 32.6587 12.6562 33.0469 12.6562ZM33.75 4.21875H40.7812V11.25H33.75V4.21875Z" fill="#580F66"/>
<path d="M38.6719 5.625H35.8594C35.4712 5.625 35.1562 5.94 35.1562 6.32812V9.14062C35.1562 9.52875 35.4712 9.84375 35.8594 9.84375H38.6719C39.06 9.84375 39.375 9.52875 39.375 9.14062V6.32812C39.375 5.94 39.06 5.625 38.6719 5.625ZM37.9688 8.4375H36.5625V7.03125H37.9688V8.4375Z" fill="#580F66"/>
<path d="M11.9531 32.3438H3.51562C3.1275 32.3438 2.8125 32.6587 2.8125 33.0469V41.4844C2.8125 41.8725 3.1275 42.1875 3.51562 42.1875H11.9531C12.3413 42.1875 12.6562 41.8725 12.6562 41.4844V33.0469C12.6562 32.6587 12.3413 32.3438 11.9531 32.3438ZM11.25 40.7812H4.21875V33.75H11.25V40.7812Z" fill="#580F66"/>
<path d="M6.32812 39.375H9.14062C9.52875 39.375 9.84375 39.06 9.84375 38.6719V35.8594C9.84375 35.4712 9.52875 35.1562 9.14062 35.1562H6.32812C5.94 35.1562 5.625 35.4712 5.625 35.8594V38.6719C5.625 39.06 5.94 39.375 6.32812 39.375ZM7.03125 36.5625H8.4375V37.9688H7.03125V36.5625Z" fill="#580F66"/>
<path d="M30.9375 13.3594H26.0156V4.92188H24.6094V14.0625C24.6094 14.4506 24.9244 14.7656 25.3125 14.7656H30.9375V13.3594Z" fill="#580F66"/>
<path d="M20.3906 8.4375H15.4688V9.84375H20.3906V8.4375Z" fill="#580F66"/>
<path d="M23.2031 5.625H18.2812V7.03125H23.2031V5.625Z" fill="#580F66"/>
<path d="M4.21875 13.3594H2.8125V19.6875H4.21875V13.3594Z" fill="#580F66"/>
<path d="M12.6562 17.5781H5.625V18.9844H11.9531V21.7969H13.3594V18.2812C13.3594 17.8931 13.0444 17.5781 12.6562 17.5781Z" fill="#580F66"/>
<path d="M7.73438 14.0625H6.32812V15.4688H7.73438V14.0625Z" fill="#580F66"/>
<path d="M16.1719 12.6562H14.7656V18.2812H16.1719V12.6562Z" fill="#580F66"/>
<path d="M21.0938 19.6875H14.7656V21.0938H21.0938V19.6875Z" fill="#580F66"/>
<path d="M42.8906 20.3906H41.4844V27.4219H39.375V28.8281H42.1875C42.5756 28.8281 42.8906 28.5131 42.8906 28.125V20.3906Z" fill="#580F66"/>
<path d="M19.6875 12.6562H18.2812V14.0625H19.6875V12.6562Z" fill="#580F66"/>
<path d="M4.21875 23.2031H2.8125V28.8281H4.21875V23.2031Z" fill="#580F66"/>
<path d="M9.14062 29.5312H2.8125V30.9375H9.14062V29.5312Z" fill="#580F66"/>
<path d="M35.1562 19.6875H36.5625V16.875C36.5625 16.4869 36.2475 16.1719 35.8594 16.1719H32.3438V17.5781H35.1562V19.6875Z" fill="#580F66"/>
<path d="M7.73438 23.2031H6.32812V24.6094H7.73438V23.2031Z" fill="#580F66"/>
<path d="M15.4688 22.5H14.0625V28.125H15.4688V22.5Z" fill="#580F66"/>
<path d="M20.3906 29.5312H14.0625V30.9375H20.3906V29.5312Z" fill="#580F66"/>
<path d="M11.9531 26.7188H5.625V28.125H11.9531V26.7188Z" fill="#580F66"/>
<path d="M16.1719 36.5625H14.7656V39.375H16.1719V36.5625Z" fill="#580F66"/>
<path d="M20.3906 33.75H14.0625V35.1562H20.3906V33.75Z" fill="#580F66"/>
<path d="M25.3125 30.9375V27.4219C25.3125 27.0337 24.9975 26.7188 24.6094 26.7188H17.5781V28.125H23.9062V30.9375H25.3125Z" fill="#580F66"/>
<path d="M19.6875 22.5H18.2812V23.9062H19.6875V22.5Z" fill="#580F66"/>
<path d="M11.9531 23.9062H10.5469V25.3125H11.9531V23.9062Z" fill="#580F66"/>
<path d="M42.8906 37.2656H41.4844V42.1875H42.8906V37.2656Z" fill="#580F66"/>
<path d="M40.0781 40.7812H37.9688V42.1875H40.0781V40.7812Z" fill="#580F66"/>
<path d="M39.375 36.5625H37.9688V39.375H39.375V36.5625Z" fill="#580F66"/>
<path d="M42.8906 30.9375C42.8906 30.5494 42.5756 30.2344 42.1875 30.2344H34.4531V31.6406H41.4844V35.8594H42.8906V30.9375Z" fill="#580F66"/>
<path d="M33.75 39.375V35.8594C33.75 35.4712 33.435 35.1562 33.0469 35.1562H25.3125V36.5625H32.3438V39.375H33.75Z" fill="#580F66"/>
<path d="M40.0781 33.0469H35.1562V34.4531H40.0781V33.0469Z" fill="#580F66"/>
<path d="M18.9844 40.7812H14.0625V42.1875H18.9844V40.7812Z" fill="#580F66"/>
<path d="M22.5 35.8594H21.0938V42.1875H22.5V35.8594Z" fill="#580F66"/>
<path d="M25.3125 32.3438H22.5V33.75H25.3125V32.3438Z" fill="#580F66"/>
<path d="M33.0469 25.3125H36.5625V23.9062H33.75V19.6875H32.3438V24.6094C32.3438 24.9975 32.6587 25.3125 33.0469 25.3125Z" fill="#580F66"/>
<path d="M38.6719 21.0938H35.1562V22.5H38.6719V21.0938Z" fill="#580F66"/>
<path d="M40.0781 14.0625H37.9688V15.4688H40.0781V14.0625Z" fill="#580F66"/>
<path d="M42.8906 14.0625H41.4844V17.5781H42.8906V14.0625Z" fill="#580F66"/>
<path d="M39.375 17.5781H37.9688V18.9844H39.375V17.5781Z" fill="#580F66"/>
<path d="M27.4219 11.9531H30.2344C30.6225 11.9531 30.9375 11.6381 30.9375 11.25V2.10938H29.5312V10.5469H27.4219V11.9531Z" fill="#580F66"/>
<path d="M16.875 3.51562H27.4219V2.10938H16.1719C15.7837 2.10938 15.4688 2.42437 15.4688 2.8125V6.32812H16.875V3.51562Z" fill="#580F66"/>
<path d="M17.5781 16.875H22.5C22.8881 16.875 23.2031 16.56 23.2031 16.1719V10.5469H21.7969V15.4688H17.5781V16.875Z" fill="#580F66"/>
<path d="M25.3125 16.1719H23.9062V18.9844H25.3125V16.1719Z" fill="#580F66"/>
<path d="M30.2344 37.9688H25.3125V39.375H30.2344V37.9688Z" fill="#580F66"/>
<path d="M31.6406 40.7812H25.3125V42.1875H31.6406V40.7812Z" fill="#580F66"/>
<path d="M35.1562 40.7812H33.75V42.1875H35.8594C36.2475 42.1875 36.5625 41.8725 36.5625 41.4844V35.8594H35.1562V40.7812Z" fill="#580F66"/>
<path d="M12.6562 29.5312H11.25V30.9375H12.6562V29.5312Z" fill="#580F66"/>
<path d="M30.2344 29.5312H27.4219V30.9375H30.2344V29.5312Z" fill="#580F66"/>
<path d="M33.75 26.7188H32.3438V28.8281H33.75V26.7188Z" fill="#580F66"/>
<path d="M33.0469 30.2344H31.6406V31.6406H33.0469V30.2344Z" fill="#580F66"/>
<path d="M29.5312 32.3438H27.4219V33.75H29.5312V32.3438Z" fill="#580F66"/>
<path d="M36.5625 26.7188H35.1562V28.125H36.5625V26.7188Z" fill="#580F66"/>
<path d="M40.0781 23.9062H37.9688V25.3125H40.0781V23.9062Z" fill="#580F66"/>
<path d="M28.125 23.9062H24.6094V25.3125H28.125V23.9062Z" fill="#580F66"/>
<path d="M25.3125 20.3906H23.9062V22.5H25.3125V20.3906Z" fill="#580F66"/>
</svg>
