<svg width="96" height="96" viewBox="0 0 96 96" fill="none" xmlns="http://www.w3.org/2000/svg">
<g clip-path="url(#clip0_2160_650)">
<path d="M88 40V24C88 19.56 84.4 16 80 16H16C11.6 16 8.04 19.56 8.04 24V40C12.44 40 16 43.6 16 48C16 52.4 12.44 56 8 56V72C8 76.4 11.6 80 16 80H80C84.4 80 88 76.4 88 72V56C83.6 56 80 52.4 80 48C80 43.6 83.6 40 88 40ZM80 34.16C75.24 36.92 72 42.12 72 48C72 53.88 75.24 59.08 80 61.84V72H16V61.84C20.76 59.08 24 53.88 24 48C24 42.08 20.8 36.92 16.04 34.16L16 24H80V34.16ZM44 60H52V68H44V60ZM44 44H52V52H44V44ZM44 28H52V36H44V28Z" fill="#580F66"/>
</g>
<defs>
<clipPath id="clip0_2160_650">
<rect width="96" height="96" fill="white"/>
</clipPath>
</defs>
</svg>
