<svg width="25" height="14" viewBox="0 0 25 14" fill="none" xmlns="http://www.w3.org/2000/svg">
<path d="M6.81818 14C4.92424 14 3.31439 13.3194 1.98864 11.9583C0.662879 10.5972 0 8.94444 0 7C0 5.05556 0.662879 3.40278 1.98864 2.04167C3.31439 0.680555 4.92424 0 6.81818 0C8.06818 0 9.21402 0.320833 10.2557 0.9625C11.2973 1.60417 12.1212 2.45 12.7273 3.5H25V10.5H22.7273V14H15.9091V10.5H12.7273C12.1212 11.55 11.2973 12.3958 10.2557 13.0375C9.21402 13.6792 8.06818 14 6.81818 14ZM6.81818 11.6667C8.06818 11.6667 9.07197 11.2729 9.82955 10.4854C10.5871 9.69792 11.0417 8.925 11.1932 8.16667H18.1818V11.6667H20.4545V8.16667H22.7273V5.83333H11.1932C11.0417 5.075 10.5871 4.30208 9.82955 3.51458C9.07197 2.72708 8.06818 2.33333 6.81818 2.33333C5.56818 2.33333 4.49811 2.79028 3.60795 3.70417C2.7178 4.61806 2.27273 5.71667 2.27273 7C2.27273 8.28333 2.7178 9.38194 3.60795 10.2958C4.49811 11.2097 5.56818 11.6667 6.81818 11.6667ZM6.81818 9.33333C7.44318 9.33333 7.97822 9.10486 8.4233 8.64792C8.86837 8.19097 9.09091 7.64167 9.09091 7C9.09091 6.35833 8.86837 5.80903 8.4233 5.35208C7.97822 4.89514 7.44318 4.66667 6.81818 4.66667C6.19318 4.66667 5.65814 4.89514 5.21307 5.35208C4.76799 5.80903 4.54545 6.35833 4.54545 7C4.54545 7.64167 4.76799 8.19097 5.21307 8.64792C5.65814 9.10486 6.19318 9.33333 6.81818 9.33333Z" fill="#580F66"/>
</svg>
